<?xml version="1.0" encoding="UTF-8"?>
<svg version="1.1" xmlns="http://www.w3.org/2000/svg" width="512" height="512">
<path d="M0 0 C1.0401123 0.20399414 2.08022461 0.40798828 3.15185547 0.61816406 C43.64141875 8.81752441 80.56756801 26.12647036 112 53 C113.15822266 53.99 113.15822266 53.99 114.33984375 55 C126.56105805 65.73677396 138.10946627 77.19145326 147.75732422 90.31298828 C148.97864961 91.97101549 150.22377916 93.60876498 151.47265625 95.24609375 C172.95500429 123.86087055 186.45213489 157.98288031 193 193 C193.24556641 194.27786377 193.24556641 194.27786377 193.49609375 195.58154297 C198.30755346 221.75131089 198.01637663 250.8960795 193 277 C192.83371094 277.88929199 192.66742188 278.77858398 192.49609375 279.69482422 C184.68289978 320.27279179 166.81896423 357.63139005 140 389 C139.34 389.77214844 138.68 390.54429687 138 391.33984375 C127.26322604 403.56105805 115.80854674 415.10946627 102.68701172 424.75732422 C101.02898451 425.97864961 99.39123502 427.22377916 97.75390625 428.47265625 C49.04129033 465.0433196 -15.4829066 479.79812827 -75.5324707 471.48095703 C-120.22132413 464.45648246 -161.59180032 446.41769743 -196 417 C-196.77214844 416.34 -197.54429687 415.68 -198.33984375 415 C-210.56105805 404.26322604 -222.10946627 392.80854674 -231.75732422 379.68701172 C-232.97864961 378.02898451 -234.22377916 376.39123502 -235.47265625 374.75390625 C-256.95500429 346.13912945 -270.45213489 312.01711969 -277 277 C-277.16371094 276.14809082 -277.32742188 275.29618164 -277.49609375 274.41845703 C-282.29626323 248.31009719 -282.11494189 219.03514537 -277 193 C-276.79600586 191.9598877 -276.59201172 190.91977539 -276.38183594 189.84814453 C-268.18247559 149.35858125 -250.87352964 112.43243199 -224 81 C-223.34 80.22785156 -222.68 79.45570312 -222 78.66015625 C-211.26322604 66.43894195 -199.80854674 54.89053373 -186.68701172 45.24267578 C-185.02898451 44.02135039 -183.39123502 42.77622084 -181.75390625 41.52734375 C-153.13912945 20.04499571 -119.01711969 6.54786511 -84 0 C-83.14809082 -0.16371094 -82.29618164 -0.32742187 -81.41845703 -0.49609375 C-55.31009719 -5.29626323 -26.03514537 -5.11494189 0 0 Z M-158 81 C-152.17371096 88.15801225 -145.5617015 94.52591766 -139 101 C-135.89949094 99.59193884 -133.5351508 97.87729535 -130.9375 95.6875 C-120.89828299 87.73909512 -110.61169111 85.16133045 -98 86 C-84.22102372 88.27217612 -72.75219176 97.12601838 -64.69140625 108.16015625 C-51.77544298 127.08114738 -44.55726668 148.07806752 -44.8125 171.0625 C-44.8134668 172.72249023 -44.8134668 172.72249023 -44.81445312 174.41601562 C-44.84180636 179.56146333 -45.04199447 184.36659924 -45.94921875 189.43359375 C-46.30528941 191.68650148 -46.30528941 191.68650148 -46 194 C-44.50811464 195.83450816 -44.50811464 195.83450816 -42.50317383 197.28540039 C-41.85302811 197.80107071 -41.20288239 198.31674103 -40.53303528 198.84803772 C-39.77418282 199.41825905 -39.77418282 199.41825905 -39 200 C-39.00888245 198.72737305 -39.01776489 197.45474609 -39.0269165 196.14355469 C-39.10807855 184.13772205 -39.16800218 172.13194523 -39.20724869 160.12590027 C-39.22810418 153.95377143 -39.25638522 147.78186445 -39.30175781 141.60986328 C-39.34528731 135.65114161 -39.36915244 129.69263307 -39.37950897 123.73376465 C-39.38688751 121.46281582 -39.40129607 119.19187837 -39.42292023 116.92102051 C-39.45204786 113.73485299 -39.45595198 110.54956095 -39.45410156 107.36328125 C-39.46848267 106.42891739 -39.48286377 105.49455353 -39.49768066 104.53187561 C-39.46049877 98.59717576 -38.49857329 93.9053006 -35 89 C-30.57900732 85.7847326 -26.30073544 85.2366941 -21 86 C-15.76025138 87.81375914 -13.65639698 90.19631845 -11 95 C-10.62721729 97.69881727 -10.46378988 99.98261279 -10.50170898 102.67016602 C-10.49343079 103.78597046 -10.49343079 103.78597046 -10.48498535 104.92431641 C-10.47570046 106.53006419 -10.47553107 108.13588563 -10.48357964 109.74164009 C-10.49624983 112.28524006 -10.48488478 114.82776133 -10.46754456 117.37132263 C-10.44088561 121.85255332 -10.43524741 126.33351793 -10.43664551 130.81481934 C-10.43887703 137.99044211 -10.4247338 145.16573629 -10.38105965 152.34123039 C-10.37123274 154.84351323 -10.37993119 157.3452774 -10.38975525 159.84754944 C-10.38361034 161.38477924 -10.37669837 162.92200623 -10.36889648 164.45922852 C-10.37661575 165.15183273 -10.38433502 165.84443695 -10.39228821 166.55802917 C-10.34738042 170.85170918 -9.71340914 173.63194046 -7 177 C-3.63825863 178.25411568 -3.63825863 178.25411568 0 178 C2.82024527 176.54748013 2.82024527 176.54748013 5 174 C5.74223048 170.60246847 5.74223048 170.60246847 5.61181641 166.7121582 C5.61748123 165.98475937 5.62314606 165.25736053 5.62898254 164.50791931 C5.64247703 162.10501445 5.62153809 159.70362022 5.6015625 157.30078125 C5.6070649 155.6241096 5.61519151 153.94744469 5.62582397 152.27079773 C5.64872628 147.85345147 5.64448876 143.43659954 5.63201904 139.01922607 C5.61373223 131.96735437 5.62383802 124.91577658 5.65787888 117.86397362 C5.66394555 115.41057731 5.65076521 112.95781716 5.63589478 110.50447083 C5.62975774 102.8781847 5.70943257 96.04330422 9 89 C11.5625 87.5 11.5625 87.5 14 87 C14.66 86.67 15.32 86.34 16 86 C21.57335568 85.62844295 25.23651851 85.75217171 30 89 C33.62421963 93.47753817 34.58170263 96.94824842 34.51416016 102.57836914 C34.52128525 103.3124852 34.52841034 104.04660126 34.53575134 104.80296326 C34.55494933 107.21397238 34.54676938 109.62409667 34.5390625 112.03515625 C34.54897471 113.71855443 34.56091795 115.40194176 34.57479858 117.08531189 C34.60711146 121.50734077 34.6175484 125.92912201 34.62164307 130.35125732 C34.63041023 137.4320992 34.66594646 144.51273821 34.7138176 151.5934124 C34.72638285 154.06235751 34.72564663 156.53104472 34.72354126 159.00001526 C34.73012304 160.51702064 34.73712958 162.03402426 34.74462891 163.55102539 C34.74050491 164.23427887 34.73638092 164.91753235 34.73213196 165.62149048 C34.7649237 169.50616176 35.1357407 172.56370521 37 176 C39.88599388 178.35618542 39.88599388 178.35618542 43.5 177.8125 C47.5287166 176.93974121 47.5287166 176.93974121 50 174 C50.46292453 170.7157206 50.46292453 170.7157206 50.40063477 166.88574219 C50.40761383 166.16503036 50.4145929 165.44431854 50.42178345 164.70176697 C50.44179394 162.31668463 50.44126017 159.93203393 50.44140625 157.546875 C50.45317887 155.88640171 50.46654281 154.22593901 50.48143005 152.56549072 C50.51766347 148.18862731 50.53782601 143.81185758 50.55297852 139.43487549 C50.57777252 132.44344244 50.61765331 125.45221683 50.67487907 118.46097565 C50.6911399 116.02428796 50.69498039 113.58779714 50.69789124 111.15106201 C50.70767565 109.64464995 50.71794024 108.13824092 50.72875977 106.63183594 C50.73303482 105.32406189 50.73730988 104.01628784 50.74171448 102.66888428 C51.08330225 97.81671137 52.47097552 93.58707343 54 89 C56.4375 87.875 56.4375 87.875 59 87 C59.66 86.67 60.32 86.34 61 86 C66.60727817 85.62618146 70.16772538 85.81509173 75 89 C80.11768315 94.11768315 80.10826547 99.57087698 80.14663696 106.44055176 C80.14618378 107.25882446 80.14573059 108.07709717 80.14526367 108.92016602 C80.14862228 109.79748886 80.1519809 110.67481171 80.15544128 111.57872009 C80.16491527 114.47046336 80.16689298 117.36214844 80.16796875 120.25390625 C80.17118509 122.27685062 80.17454945 124.29979476 80.17805481 126.32273865 C80.18403814 130.56355325 80.18589566 134.8043475 80.18530273 139.04516602 C80.18520146 144.44924311 80.19882166 149.8531878 80.21607494 155.25723362 C80.2272599 159.43798915 80.22921991 163.6187134 80.22869301 167.79948235 C80.22986459 169.78995149 80.23423957 171.78042167 80.24202538 173.77087593 C80.36677739 208.97453335 80.36677739 208.97453335 67.75390625 222.4765625 C59.97124015 229.23656201 51.00177572 232.371427 41 234 C36.60106203 262.57133745 36.60106203 262.57133745 45.634552 288.97554588 C53.72311104 299.31882676 63.59757233 308.05882005 73.44934082 316.67657471 C77.75830264 320.49607394 81.93009342 324.46011969 86.1171875 328.41210938 C94.28701881 336.08452593 102.59064791 343.59145545 111 351 C115.04453876 347.05380984 115.04453876 347.05380984 118.39453125 342.5390625 C118.78850098 341.91104736 119.1824707 341.28303223 119.58837891 340.63598633 C119.99233887 339.97236084 120.39629883 339.30873535 120.8125 338.625 C121.24481934 337.91947998 121.67713867 337.21395996 122.12255859 336.48706055 C123.42964229 334.33304242 124.718952 332.16958972 126 330 C126.36561035 329.38302246 126.7312207 328.76604492 127.10791016 328.13037109 C152.6682063 284.36603926 156.52254638 231.36833541 144 183 C130.46458305 133.63900998 96.84105802 92.48527185 52.9375 66.8125 C-12.52431353 29.76562982 -98.50060712 33.89631397 -158 81 Z M-196 119 C-219.8251291 147.80165737 -233.92803621 187.8075171 -235 225 C-235.02046387 225.70092773 -235.04092773 226.40185547 -235.06201172 227.12402344 C-236.36504299 279.35296297 -218.1339013 329.17014515 -182.375 367.4375 C-147.20959286 404.28937102 -98.61577815 426.85868429 -47.48828125 428.125 C-3.93092629 428.84938427 39.58731478 416.2433758 74 389 C70.10451907 384.34165881 66.06301094 379.91391226 61.76171875 375.62890625 C61.19548294 375.06171371 60.62924713 374.49452118 60.04585266 373.91014099 C58.86309421 372.72670827 57.67909712 371.54451227 56.49389648 370.36352539 C54.67117911 368.54622764 52.85394191 366.72356975 51.03710938 364.90039062 C49.88313353 363.74707453 48.7288481 362.59406809 47.57421875 361.44140625 C47.0294841 360.89464737 46.48474945 360.34788849 45.92350769 359.78456116 C43.81492881 357.17721249 43.81492881 357.17721249 41 356 C40.97421875 356.845625 40.9484375 357.69125 40.921875 358.5625 C40.53608796 366.27824084 40.01041488 372.70312692 34.578125 378.5234375 C29.49959118 383.05223312 24.98810297 384.44108946 18.3359375 384.2421875 C11.58494736 383.54225207 7.49851022 381.14063541 3.2265625 375.9140625 C0.64382116 371.88366996 -0.284045 368.74345169 0.32385254 363.98999023 C4.05621944 330.64996361 4.05621944 330.64996361 -8.65234375 300.8046875 C-17.61046255 290.08894921 -28.06511775 280.77818833 -38.55889893 271.60626221 C-43.53144896 267.19982771 -48.33956366 262.62164117 -53.16796875 258.05859375 C-60.18802082 251.46370053 -67.26369918 244.94166119 -74.46679688 238.546875 C-75.21904037 237.8774437 -75.97128387 237.20801239 -76.74632263 236.51829529 C-77.42779861 235.91767776 -78.1092746 235.31706024 -78.81140137 234.69824219 C-79.40650261 234.17365417 -80.00160385 233.64906616 -80.61473846 233.10858154 C-81.83442225 231.89586283 -81.83442225 231.89586283 -83 232 C-83.00146656 232.69868698 -83.00293312 233.39737396 -83.00444412 234.11723328 C-83.04153318 251.13603181 -83.10057562 268.15461326 -83.18390274 285.17324829 C-83.22367292 293.40342526 -83.25607564 301.6335069 -83.27099609 309.86376953 C-83.28402314 317.03921482 -83.31101451 324.21445015 -83.35461307 331.38977718 C-83.37720443 335.18735268 -83.39291209 338.98466946 -83.39188385 342.78231812 C-83.39113584 346.36116545 -83.40914206 349.93944138 -83.44116783 353.51814079 C-83.4536693 355.4488669 -83.44661374 357.37968906 -83.43885803 359.31044006 C-83.52848544 366.8073205 -84.06719188 372.78426009 -89.41168594 378.51324463 C-94.49279507 383.04802239 -99.0056669 384.44127574 -105.6640625 384.2421875 C-112.41505264 383.54225207 -116.50148978 381.14063541 -120.7734375 375.9140625 C-123.45494712 371.72954111 -124.25151611 368.09729865 -124.2784729 363.15971375 C-124.28963638 361.99168716 -124.30079987 360.82366058 -124.31230164 359.62023926 C-124.31446182 358.34781372 -124.31662201 357.07538818 -124.31884766 355.7644043 C-124.3281509 354.40407213 -124.33832017 353.04374566 -124.34928894 351.6834259 C-124.37655842 347.99790116 -124.39172925 344.31241458 -124.40471697 340.62681556 C-124.42036089 336.77239089 -124.44714709 332.918044 -124.4727478 329.06367493 C-124.51951327 321.76818146 -124.55626817 314.47267332 -124.58942068 307.17710668 C-124.62765784 298.86996649 -124.67706383 290.56290445 -124.72740483 282.25583017 C-124.83069148 265.17061 -124.91996249 248.08534458 -125 231 C-126.10206787 230.46165527 -127.20413574 229.92331055 -128.33959961 229.36865234 C-129.79813062 228.64964992 -131.25653889 227.93039849 -132.71484375 227.2109375 C-133.43973999 226.85765381 -134.16463623 226.50437012 -134.91149902 226.14038086 C-147.90449848 219.70864259 -154.93109216 209.8364937 -159.95703125 196.37109375 C-160.30121094 195.25863281 -160.64539063 194.14617187 -161 193 C-161.21301758 192.38084717 -161.42603516 191.76169434 -161.64550781 191.1237793 C-163.1037456 186.12703273 -162.86738654 182.16415682 -162.0703125 177.02734375 C-160.63982186 166.20627667 -159.30055998 155.6141341 -166.11572266 146.3359375 C-174.50275917 136.13592083 -184.6617498 127.17910536 -195 119 C-195.33 119 -195.66 119 -196 119 Z M-5 234 C-3.68 235.32 -2.36 236.64 -1 238 C-1 236.68 -1 235.36 -1 234 C-2.32 234 -3.64 234 -5 234 Z " fill="#EF5262" transform="translate(298,21)"/>
<path d="M0 0 C2.65259054 -0.00963265 5.30437973 -0.04070989 7.95678711 -0.07226562 C47.31148402 -0.31372649 86.94611691 13.13368535 118.75170898 36.24023438 C119.30906738 36.64209961 119.86642578 37.04396484 120.44067383 37.45800781 C128.59478479 43.38783594 136.07391691 49.93935924 143.35473633 56.90625 C144.54602144 58.04382111 145.75100663 59.16701662 146.95874023 60.28710938 C160.84545673 73.52332795 171.66956915 90.47751949 180.75170898 107.24023438 C181.33694336 108.30371094 181.92217773 109.3671875 182.52514648 110.46289062 C191.59039251 127.6704504 197.20182945 146.17211324 200.75170898 165.24023438 C200.93717285 166.18157227 201.12263672 167.12291016 201.3137207 168.09277344 C203.07819914 177.99966664 203.14946105 187.83467451 203.12670898 197.86523438 C203.12589325 199.21734512 203.12589325 199.21734512 203.12506104 200.59677124 C203.04168663 230.75195842 197.28018067 257.81385434 184.75170898 285.24023438 C184.44007813 285.93068848 184.12844727 286.62114258 183.80737305 287.33251953 C177.94390562 300.17320296 170.41743786 312.16506718 161.69702148 323.26757812 C161.25116699 323.84113037 160.8053125 324.41468262 160.34594727 325.00561523 C158.75170898 326.24023438 158.75170898 326.24023438 156.46089727 326.58690089 C152.72332399 326.10864269 151.46201946 324.57718679 148.81045818 321.92818928 C148.33700945 321.46200775 147.86356072 320.99582622 147.37576506 320.51551798 C145.78324028 318.94132423 144.20921774 317.34982709 142.63444519 315.75788879 C141.48861744 314.617819 140.34170152 313.478842 139.19379026 312.34087008 C136.03549613 309.20351696 132.89306913 306.05067395 129.75297272 302.89512146 C126.36660748 299.49747635 122.96592933 296.11421054 119.56704712 292.72909546 C112.90819306 286.0925143 106.26297577 279.44243723 99.62249353 272.78747866 C94.22703341 267.38074225 88.82673184 261.97888686 83.42290688 256.58051109 C82.65480926 255.81317964 81.88671165 255.0458482 81.09533835 254.25526428 C79.53510822 252.69663272 77.97486685 251.13801242 76.41461436 249.57940324 C61.77296208 234.95202035 47.14669525 220.30933023 32.52560804 205.6613951 C19.97039422 193.08384147 7.40212833 180.51945538 -5.17578125 167.96459961 C-19.77008059 153.39703725 -34.35626065 138.82142421 -48.92951411 124.23280543 C-50.48252146 122.67820527 -52.0355393 121.12361558 -53.58856773 119.56903648 C-54.35275134 118.8040815 -55.11693495 118.03912652 -55.90427563 117.25099108 C-61.29885681 111.8520866 -66.69923115 106.45901869 -72.10184669 101.06815529 C-78.68262264 94.50137951 -85.2544624 87.92581686 -91.81488917 81.33870909 C-95.16453895 77.97588783 -98.51811876 74.61724587 -101.88259315 71.26925087 C-104.9593682 68.20731906 -108.02446127 65.13418679 -111.0804468 62.05150946 C-112.19099399 60.93535342 -113.30582456 59.82344052 -114.42519841 58.71613679 C-115.94065845 57.21577697 -117.44004241 55.70101268 -118.93624592 54.18148518 C-119.77499581 53.34192353 -120.6137457 52.50236188 -121.47791225 51.63735896 C-123.24829102 49.24023438 -123.24829102 49.24023438 -123.60739344 46.54458064 C-122.90404194 42.03120151 -118.71763779 39.8400725 -115.24829102 37.24023438 C-112.31222803 35.15045609 -109.3099475 33.20294157 -106.24829102 31.30273438 C-105.41942383 30.78549805 -104.59055664 30.26826172 -103.73657227 29.73535156 C-96.13057375 25.05585707 -88.36731333 20.94882888 -80.24829102 17.24023438 C-79.52738281 16.90540039 -78.80647461 16.57056641 -78.0637207 16.22558594 C-52.96309857 4.6782155 -27.4709908 0.05997487 0 0 Z M-113.24829102 46.24023438 C-107.42200197 53.39824663 -100.80999252 59.76615203 -94.24829102 66.24023438 C-91.14778196 64.83217322 -88.78344182 63.11752973 -86.18579102 60.92773438 C-76.146574 52.9793295 -65.85998212 50.40156483 -53.24829102 51.24023438 C-39.46931474 53.51241049 -28.00048278 62.36625276 -19.93969727 73.40039062 C-7.02373399 92.32138176 0.19444231 113.31830189 -0.06079102 136.30273438 C-0.06175781 137.96272461 -0.06175781 137.96272461 -0.06274414 139.65625 C-0.09009738 144.80169771 -0.29028549 149.60683361 -1.19750977 154.67382812 C-1.55358043 156.92673586 -1.55358043 156.92673586 -1.24829102 159.24023438 C0.24359435 161.07474253 0.24359435 161.07474253 2.24853516 162.52563477 C2.89868088 163.04130508 3.5488266 163.5569754 4.21867371 164.08827209 C4.97752617 164.65849342 4.97752617 164.65849342 5.75170898 165.24023438 C5.74282654 163.96760742 5.73394409 162.69498047 5.72479248 161.38378906 C5.64363043 149.37795642 5.5837068 137.3721796 5.5444603 125.36613464 C5.52360481 119.1940058 5.49532377 113.02209882 5.44995117 106.85009766 C5.40642167 100.89137599 5.38255654 94.93286745 5.37220001 88.97399902 C5.36482147 86.70305019 5.35041291 84.43211274 5.32878876 82.16125488 C5.29966113 78.97508736 5.295757 75.78979533 5.29760742 72.60351562 C5.28322632 71.66915176 5.26884521 70.7347879 5.25402832 69.77210999 C5.29121021 63.83741014 6.25313569 59.14553497 9.75170898 54.24023438 C14.17270166 51.02496697 18.45097354 50.47692847 23.75170898 51.24023438 C28.99145761 53.05399351 31.095312 55.43655283 33.75170898 60.24023438 C34.12449169 62.93905165 34.2879191 65.22284717 34.25 67.91040039 C34.2582782 69.02620483 34.2582782 69.02620483 34.26672363 70.16455078 C34.27600852 71.77029857 34.27617791 73.37612001 34.26812935 74.98187447 C34.25545915 77.52547444 34.2668242 80.0679957 34.28416443 82.61155701 C34.31082338 87.09278769 34.31646157 91.5737523 34.31506348 96.05505371 C34.31283195 103.23067649 34.32697518 110.40597067 34.37064934 117.58146477 C34.38047624 120.0837476 34.3717778 122.58551178 34.36195374 125.08778381 C34.36809864 126.62501361 34.37501061 128.16224061 34.3828125 129.69946289 C34.37509323 130.39206711 34.36737396 131.08467133 34.35942078 131.79826355 C34.40432857 136.09194356 35.03829984 138.87217483 37.75170898 142.24023438 C41.11345036 143.49435006 41.11345036 143.49435006 44.75170898 143.24023438 C47.57195425 141.78771451 47.57195425 141.78771451 49.75170898 139.24023438 C50.49393946 135.84270285 50.49393946 135.84270285 50.36352539 131.95239258 C50.36919022 131.22499374 50.37485504 130.49759491 50.38069153 129.74815369 C50.39418602 127.34524882 50.37324707 124.9438546 50.35327148 122.54101562 C50.35877388 120.86434398 50.3669005 119.18767907 50.37753296 117.5110321 C50.40043526 113.09368584 50.39619775 108.67683392 50.38372803 104.25946045 C50.36544122 97.20758874 50.375547 90.15601096 50.40958786 83.10420799 C50.41565453 80.65081168 50.40247419 78.19805153 50.38760376 75.7447052 C50.38146672 68.11841907 50.46114155 61.28353859 53.75170898 54.24023438 C56.31420898 52.74023438 56.31420898 52.74023438 58.75170898 52.24023438 C59.41170898 51.91023438 60.07170898 51.58023438 60.75170898 51.24023438 C66.32506466 50.86867733 69.98822749 50.99240609 74.75170898 54.24023438 C78.37592861 58.71777255 79.33341161 62.18848279 79.26586914 67.81860352 C79.27299423 68.55271957 79.28011932 69.28683563 79.28746033 70.04319763 C79.30665832 72.45420675 79.29847836 74.86433105 79.29077148 77.27539062 C79.3006837 78.9587888 79.31262694 80.64217613 79.32650757 82.32554626 C79.35882044 86.74757514 79.36925739 91.16935639 79.37335205 95.5914917 C79.38211922 102.67233358 79.41765544 109.75297259 79.46552658 116.83364677 C79.47809184 119.30259188 79.47735561 121.77127909 79.47525024 124.24024963 C79.48183202 125.75725502 79.48883857 127.27425864 79.49633789 128.79125977 C79.4922139 129.47451324 79.4880899 130.15776672 79.48384094 130.86172485 C79.51663269 134.74639614 79.88744968 137.80393959 81.75170898 141.24023438 C84.63770286 143.5964198 84.63770286 143.5964198 88.25170898 143.05273438 C92.28042559 142.17997559 92.28042559 142.17997559 94.75170898 139.24023438 C95.21463351 135.95595497 95.21463351 135.95595497 95.15234375 132.12597656 C95.15932281 131.40526474 95.16630188 130.68455292 95.17349243 129.94200134 C95.19350292 127.55691901 95.19296915 125.1722683 95.19311523 122.78710938 C95.20488785 121.12663609 95.2182518 119.46617338 95.23313904 117.8057251 C95.26937246 113.42886169 95.28953499 109.05209195 95.3046875 104.67510986 C95.32948151 97.68367682 95.36936229 90.6924512 95.42658806 83.70121002 C95.44284888 81.26452234 95.44668938 78.82803152 95.44960022 76.39129639 C95.45938463 74.88488433 95.46964923 73.37847529 95.48046875 71.87207031 C95.4847438 70.56429626 95.48901886 69.25652222 95.49342346 67.90911865 C95.83501124 63.05694575 97.22268451 58.8273078 98.75170898 54.24023438 C101.18920898 53.11523438 101.18920898 53.11523438 103.75170898 52.24023438 C104.41170898 51.91023438 105.07170898 51.58023438 105.75170898 51.24023438 C111.35898715 50.86641583 114.91943436 51.0553261 119.75170898 54.24023438 C124.86939213 59.35791752 124.85997446 64.81111135 124.89834595 71.68078613 C124.89789276 72.49905884 124.89743958 73.31733154 124.89697266 74.16040039 C124.90033127 75.03772324 124.90368988 75.91504608 124.90715027 76.81895447 C124.91662425 79.71069773 124.91860196 82.60238281 124.91967773 85.49414062 C124.92289408 87.51708499 124.92625843 89.54002913 124.92976379 91.56297302 C124.93574712 95.80378762 124.93760464 100.04458187 124.93701172 104.28540039 C124.93691044 109.68947748 124.95053064 115.09342218 124.96778393 120.49746799 C124.97896889 124.67822352 124.9809289 128.85894777 124.98040199 133.03971672 C124.98157357 135.03018587 124.98594855 137.02065604 124.99373436 139.01111031 C125.11848637 174.21476772 125.11848637 174.21476772 112.50561523 187.71679688 C104.72294913 194.47679638 95.75348471 197.61166137 85.75170898 199.24023438 C81.35277102 227.81157182 81.35277102 227.81157182 90.38626099 254.21578026 C98.47482002 264.55906114 108.34928131 273.29905442 118.2010498 281.91680908 C122.51001163 285.73630831 126.68180241 289.70035406 130.86889648 293.65234375 C139.03872779 301.32476031 147.3423569 308.83168983 155.75170898 316.24023438 C159.79624774 312.29404421 159.79624774 312.29404421 163.14624023 307.77929688 C163.54020996 307.15128174 163.93417969 306.5232666 164.34008789 305.8762207 C164.74404785 305.21259521 165.14800781 304.54896973 165.56420898 303.86523438 C165.99652832 303.15971436 166.42884766 302.45419434 166.87426758 301.72729492 C168.18135127 299.57327679 169.47066099 297.4098241 170.75170898 295.24023438 C171.11731934 294.62325684 171.48292969 294.0062793 171.85961914 293.37060547 C197.41991529 249.60627363 201.27425537 196.60856978 188.75170898 148.24023438 C175.21629203 98.87924436 141.592767 57.72550623 97.68920898 32.05273438 C32.22739545 -4.9941358 -53.74889813 -0.86345166 -113.24829102 46.24023438 Z M39.75170898 199.24023438 C41.07170898 200.56023437 42.39170898 201.88023437 43.75170898 203.24023438 C43.75170898 201.92023438 43.75170898 200.60023438 43.75170898 199.24023438 C42.43170898 199.24023438 41.11170898 199.24023438 39.75170898 199.24023438 Z " fill="#252022" transform="translate(253.248291015625,55.759765625)"/>
<path d="M0 0 C2.39712459 1.77037877 2.39712459 1.77037877 4.9412508 4.3120451 C5.6514239 5.01131739 5.6514239 5.01131739 6.37594393 5.7247164 C7.96846871 7.29891014 9.54249125 8.89040728 11.11726379 10.48234558 C12.26309154 11.62241537 13.41000746 12.76139238 14.55791873 13.89936429 C17.71621285 17.03671742 20.85863985 20.18956043 23.99873626 23.34511292 C27.3851015 26.74275802 30.78577965 30.12602384 34.18466187 33.51113892 C40.84351592 40.14772008 47.48873321 46.79779714 54.12921546 53.45275571 C59.52467558 58.85949213 64.92497715 64.26134752 70.32880211 69.65972328 C71.09689972 70.42705473 71.86499734 71.19438618 72.65637064 71.9849701 C74.21660077 73.54360165 75.77684214 75.10222196 77.33709463 76.66083113 C91.9787469 91.28821402 106.60501374 105.93090415 121.22610094 120.57883928 C133.78131476 133.1563929 146.34958065 145.720779 158.92749023 158.27563477 C173.52178957 172.84319713 188.10796963 187.41881016 202.68122309 202.00742894 C204.23423045 203.5620291 205.78724829 205.11661879 207.34027672 206.67119789 C208.10446032 207.43615287 208.86864393 208.20110786 209.65598461 208.9892433 C215.05056579 214.38814777 220.45094014 219.78121569 225.85355568 225.17207909 C232.43433162 231.73885487 239.00617138 238.31441751 245.56659815 244.90152528 C248.91624794 248.26434654 252.26982775 251.62298851 255.63430214 254.97098351 C258.71107718 258.03291532 261.77617026 261.10604759 264.83215579 264.18872491 C265.94270297 265.30488095 267.05753355 266.41679386 268.1769074 267.52409758 C269.69236743 269.0244574 271.19175139 270.53922169 272.6879549 272.0587492 C273.52670479 272.89831085 274.36545468 273.7378725 275.22962123 274.60287541 C277 277 277 277 277.35910243 279.69565374 C276.65575093 284.20903287 272.46934678 286.40016188 269 289 C266.06393933 291.08977663 263.06174508 293.03743476 260 294.9375 C259.17040771 295.45473633 258.34081543 295.97197266 257.48608398 296.50488281 C223.96125315 317.11680176 188.1874064 326.31760223 149 326.4375 C148.14680176 326.4436734 147.29360352 326.4498468 146.41455078 326.45620728 C130.91129986 326.52841696 115.61563938 324.92626098 100.625 320.8125 C99.47874146 320.50276245 99.47874146 320.50276245 98.30932617 320.18676758 C82.88525353 315.8500629 68.0363355 309.70622341 54 302 C53.07743408 301.49629883 53.07743408 301.49629883 52.13623047 300.98242188 C36.13958547 292.1248102 22.11246433 280.67109105 9 268 C8.27683594 267.32839844 7.55367187 266.65679687 6.80859375 265.96484375 C1.00629078 260.44386456 -3.81780268 254.16274307 -8.63720703 247.78955078 C-9.88200091 246.15495044 -11.15634808 244.5429643 -12.43359375 242.93359375 C-31.88683271 217.41119977 -43.67830136 185.59197746 -48 154 C-48.1743457 152.93563721 -48.34869141 151.87127441 -48.52832031 150.7746582 C-49.05882734 146.52922903 -49.16193971 142.4015322 -49.16796875 138.12890625 C-49.17129715 137.28891586 -49.17462555 136.44892548 -49.17805481 135.58348083 C-49.18309693 133.80932152 -49.18546398 132.0351528 -49.18530273 130.26098633 C-49.1874682 127.60155718 -49.20559458 124.94255793 -49.22460938 122.28320312 C-49.37217792 77.64228815 -33.93916758 36.16360417 -6.52734375 1.1171875 C-4.2333215 -0.56079297 -2.79485674 -0.34951766 0 0 Z M-3 10 C-26.8251291 38.80165737 -40.92803621 78.8075171 -42 116 C-42.02046387 116.70092773 -42.04092773 117.40185547 -42.06201172 118.12402344 C-43.36504299 170.35296297 -25.1339013 220.17014515 10.625 258.4375 C45.79040714 295.28937102 94.38422185 317.85868429 145.51171875 319.125 C189.06907371 319.84938427 232.58731478 307.2433758 267 280 C263.10451907 275.34165881 259.06301094 270.91391226 254.76171875 266.62890625 C254.19548294 266.06171371 253.62924713 265.49452118 253.04585266 264.91014099 C251.86309421 263.72670827 250.67909712 262.54451227 249.49389648 261.36352539 C247.67117911 259.54622764 245.85394191 257.72356975 244.03710938 255.90039062 C242.88313353 254.74707453 241.7288481 253.59406809 240.57421875 252.44140625 C240.0294841 251.89464737 239.48474945 251.34788849 238.92350769 250.78456116 C236.81492881 248.17721249 236.81492881 248.17721249 234 247 C233.97421875 247.845625 233.9484375 248.69125 233.921875 249.5625 C233.53608796 257.27824084 233.01041488 263.70312692 227.578125 269.5234375 C222.49959118 274.05223312 217.98810297 275.44108946 211.3359375 275.2421875 C204.58494736 274.54225207 200.49851022 272.14063541 196.2265625 266.9140625 C193.64382116 262.88366996 192.715955 259.74345169 193.32385254 254.98999023 C197.05621944 221.64996361 197.05621944 221.64996361 184.34765625 191.8046875 C175.38953745 181.08894921 164.93488225 171.77818833 154.44110107 162.60626221 C149.46855104 158.19982771 144.66043634 153.62164117 139.83203125 149.05859375 C132.81197918 142.46370053 125.73630082 135.94166119 118.53320312 129.546875 C117.78095963 128.8774437 117.02871613 128.20801239 116.25367737 127.51829529 C115.57220139 126.91767776 114.8907254 126.31706024 114.18859863 125.69824219 C113.59349739 125.17365417 112.99839615 124.64906616 112.38526154 124.10858154 C111.16557775 122.89586283 111.16557775 122.89586283 110 123 C109.99853344 123.69868698 109.99706688 124.39737396 109.99555588 125.11723328 C109.95846682 142.13603181 109.89942438 159.15461326 109.81609726 176.17324829 C109.77632708 184.40342526 109.74392436 192.6335069 109.72900391 200.86376953 C109.71597686 208.03921482 109.68898549 215.21445015 109.64538693 222.38977718 C109.62279557 226.18735268 109.60708791 229.98466946 109.60811615 233.78231812 C109.60886416 237.36116545 109.59085794 240.93944138 109.55883217 244.51814079 C109.5463307 246.4488669 109.55338626 248.37968906 109.56114197 250.31044006 C109.47151456 257.8073205 108.93280812 263.78426009 103.58831406 269.51324463 C98.50720493 274.04802239 93.9943331 275.44127574 87.3359375 275.2421875 C80.58494736 274.54225207 76.49851022 272.14063541 72.2265625 266.9140625 C69.54505288 262.72954111 68.74848389 259.09729865 68.7215271 254.15971375 C68.71036362 252.99168716 68.69920013 251.82366058 68.68769836 250.62023926 C68.68553818 249.34781372 68.68337799 248.07538818 68.68115234 246.7644043 C68.6718491 245.40407213 68.66167983 244.04374566 68.65071106 242.6834259 C68.62344158 238.99790116 68.60827075 235.31241458 68.59528303 231.62681556 C68.57963911 227.77239089 68.55285291 223.918044 68.5272522 220.06367493 C68.48048673 212.76818146 68.44373183 205.47267332 68.41057932 198.17710668 C68.37234216 189.86996649 68.32293617 181.56290445 68.27259517 173.25583017 C68.16930852 156.17061 68.08003751 139.08534458 68 122 C66.89793213 121.46165527 65.79586426 120.92331055 64.66040039 120.36865234 C63.20186938 119.64964992 61.74346111 118.93039849 60.28515625 118.2109375 C59.56026001 117.85765381 58.83536377 117.50437012 58.08850098 117.14038086 C45.09550152 110.70864259 38.06890784 100.8364937 33.04296875 87.37109375 C32.69878906 86.25863281 32.35460937 85.14617187 32 84 C31.78698242 83.38084717 31.57396484 82.76169434 31.35449219 82.1237793 C29.8962544 77.12703273 30.13261346 73.16415682 30.9296875 68.02734375 C32.36017814 57.20627667 33.69944002 46.6141341 26.88427734 37.3359375 C18.49724083 27.13592083 8.3382502 18.17910536 -2 10 C-2.33 10 -2.66 10 -3 10 Z " fill="#272223" transform="translate(105,130)"/>
<path d="M0 0 C1.0401123 0.20399414 2.08022461 0.40798828 3.15185547 0.61816406 C43.64141875 8.81752441 80.56756801 26.12647036 112 53 C113.15822266 53.99 113.15822266 53.99 114.33984375 55 C126.56105805 65.73677396 138.10946627 77.19145326 147.75732422 90.31298828 C148.97864961 91.97101549 150.22377916 93.60876498 151.47265625 95.24609375 C172.95500429 123.86087055 186.45213489 157.98288031 193 193 C193.24556641 194.27786377 193.24556641 194.27786377 193.49609375 195.58154297 C198.30755346 221.75131089 198.01637663 250.8960795 193 277 C192.83371094 277.88929199 192.66742188 278.77858398 192.49609375 279.69482422 C184.68289978 320.27279179 166.81896423 357.63139005 140 389 C139.34 389.77214844 138.68 390.54429687 138 391.33984375 C127.26322604 403.56105805 115.80854674 415.10946627 102.68701172 424.75732422 C101.02898451 425.97864961 99.39123502 427.22377916 97.75390625 428.47265625 C49.04129033 465.0433196 -15.4829066 479.79812827 -75.5324707 471.48095703 C-120.22132413 464.45648246 -161.59180032 446.41769743 -196 417 C-196.77214844 416.34 -197.54429687 415.68 -198.33984375 415 C-210.56105805 404.26322604 -222.10946627 392.80854674 -231.75732422 379.68701172 C-232.97864961 378.02898451 -234.22377916 376.39123502 -235.47265625 374.75390625 C-256.95500429 346.13912945 -270.45213489 312.01711969 -277 277 C-277.16371094 276.14809082 -277.32742188 275.29618164 -277.49609375 274.41845703 C-282.29626323 248.31009719 -282.11494189 219.03514537 -277 193 C-276.79600586 191.9598877 -276.59201172 190.91977539 -276.38183594 189.84814453 C-268.18247559 149.35858125 -250.87352964 112.43243199 -224 81 C-223.34 80.22785156 -222.68 79.45570312 -222 78.66015625 C-211.26322604 66.43894195 -199.80854674 54.89053373 -186.68701172 45.24267578 C-185.02898451 44.02135039 -183.39123502 42.77622084 -181.75390625 41.52734375 C-153.13912945 20.04499571 -119.01711969 6.54786511 -84 0 C-83.14809082 -0.16371094 -82.29618164 -0.32742187 -81.41845703 -0.49609375 C-55.31009719 -5.29626323 -26.03514537 -5.11494189 0 0 Z M-186 55 C-186.84425537 55.66636475 -186.84425537 55.66636475 -187.70556641 56.34619141 C-202.17576666 67.89715582 -215.04730845 81.08160507 -226 96 C-226.84760437 97.1289452 -227.69526066 98.25785143 -228.54296875 99.38671875 C-265.5144044 149.24603416 -278.31319491 210.46216218 -269.83203125 271.4453125 C-269.55675317 273.29718324 -269.27964309 275.14878338 -269 277 C-268.85570557 278.0533252 -268.85570557 278.0533252 -268.70849609 279.12792969 C-261.13979568 333.54845358 -224.37401696 386.0973075 -181.4296875 418.72265625 C-173.57234561 424.62534422 -165.55949489 430.15200988 -157 435 C-155.89906006 435.62624268 -155.89906006 435.62624268 -154.77587891 436.26513672 C-129.20272968 450.63806434 -101.13834983 460.27534392 -72 464 C-71.3181665 464.09498779 -70.63633301 464.18997559 -69.93383789 464.2878418 C-61.82477738 465.27418552 -53.67289234 465.18607721 -45.5168457 465.18530273 C-42.96743691 465.1874745 -40.41847242 465.2056415 -37.86914062 465.22460938 C21.08426535 465.42659993 76.72032168 440.44143144 119 400 C119.94875 399.0925 120.8975 398.185 121.875 397.25 C128.07647544 391.18633512 133.70139256 384.86390064 139 378 C139.41717285 377.46455566 139.8343457 376.92911133 140.26416016 376.37744141 C157.97241151 353.51221133 170.25976409 328.48060607 179 301 C179.25797363 300.19143555 179.51594727 299.38287109 179.78173828 298.54980469 C186.1870101 278.08238439 188.22754759 257.00723253 188.1875 235.625 C188.18623108 234.92413269 188.18496216 234.22326538 188.18365479 233.50115967 C188.0025432 180.72584107 170.69588253 132.40027722 138 91 C137.55575684 90.43716309 137.11151367 89.87432617 136.65380859 89.29443359 C125.09971186 74.8203094 111.91241387 61.96639938 97 51 C95.89425275 50.16443092 94.7887832 49.32849423 93.68359375 48.4921875 C74.36263157 34.08104265 52.79910215 23.59471403 30.09228516 15.72558594 C28.33134663 15.11490807 26.57695653 14.48539388 24.82421875 13.8515625 C17.40564352 11.34189564 9.79716989 9.83570349 2.125 8.3125 C1.06144287 8.09770996 -0.00211426 7.88291992 -1.09790039 7.66162109 C-66.52074198 -4.8003469 -134.28705311 14.15968321 -186 55 Z " fill="#262021" transform="translate(298,21)"/>
<path d="M0 0 C2.15734863 1.07221985 2.15734863 1.07221985 4 3 C4.39125148 5.56835828 4.52413258 7.71379501 4.48242188 10.28198242 C4.48633438 11.02059509 4.49024689 11.75920776 4.49427795 12.52020264 C4.50025612 14.12437779 4.49707714 15.7286071 4.4858551 17.33275414 C4.4686044 19.876942 4.47609585 22.41999216 4.4901123 24.96418762 C4.51978081 31.28661048 4.50660744 37.60881766 4.49493408 43.93127441 C4.48670816 49.26763264 4.4947724 54.60349502 4.52406311 59.9397831 C4.53112726 62.43707758 4.51451264 64.9334853 4.49694824 67.43070984 C4.44893678 78.308976 4.44893678 78.308976 9 88 C12.22901344 90.78595469 15.30319654 91.91442765 19.5625 92.4375 C24.69842623 91.78383666 27.79030262 90.30778096 31.3125 86.5 C34.16834608 82.26911692 34.14554776 78.57648389 34.1418457 73.65454102 C34.14532013 72.90950317 34.14879456 72.16446533 34.15237427 71.39685059 C34.15972351 69.77956958 34.16507333 68.16227854 34.16866493 66.54498482 C34.17583311 63.98538661 34.1915013 61.42597979 34.21000671 58.86643982 C34.26246682 51.58929023 34.3104735 44.31224684 34.32592773 37.03491211 C34.33600126 32.5832859 34.36530643 28.13214322 34.40724754 23.68070793 C34.41956869 21.9842793 34.42467676 20.28778242 34.42244911 18.5913105 C34.42009969 16.21863173 34.44223181 13.84734439 34.4699707 11.47485352 C34.46006859 10.42348457 34.46006859 10.42348457 34.44996643 9.35087585 C34.51421227 6.00630387 34.80070702 4.26205799 36.84953308 1.56797791 C39 0 39 0 41.9375 -0.5625 C46.10124082 0.20226872 47.37885823 1.71286995 50 5 C50.47896884 7.75504062 50.65423559 9.88835182 50.59594727 12.63256836 C50.60203506 13.76037468 50.60203506 13.76037468 50.60824585 14.91096497 C50.61375088 16.53749037 50.60778876 18.16408668 50.59158516 19.7905407 C50.56612743 22.36807391 50.57097453 24.94401084 50.58348083 27.5216217 C50.6042132 32.99375724 50.58455768 38.46539717 50.5625 43.9375 C50.54137555 50.27691944 50.53686622 56.61582393 50.56300163 62.95523262 C50.56635581 65.48923644 50.54516357 68.0222504 50.52259827 70.55613708 C50.52511049 72.11677259 50.52867148 73.67740689 50.53344727 75.23803711 C50.52056168 75.93796783 50.50767609 76.63789856 50.49440002 77.35903931 C50.54515309 82.34801177 51.87031012 85.16255318 55 89 C59.38373454 91.9224897 62.77777599 92.559524 68 92 C71.25058324 90.58376759 71.25058324 90.58376759 74 89 C74.66 89 75.32 89 76 89 C78.16488186 83.65995807 79.14617133 79.40552695 79.1418457 73.65454102 C79.14705734 72.53698425 79.14705734 72.53698425 79.15237427 71.39685059 C79.15972351 69.77956958 79.16507333 68.16227854 79.16866493 66.54498482 C79.17583311 63.98538661 79.1915013 61.42597979 79.21000671 58.86643982 C79.26246682 51.58929023 79.3104735 44.31224684 79.32592773 37.03491211 C79.33600126 32.5832859 79.36530643 28.13214322 79.40724754 23.68070793 C79.41956869 21.9842793 79.42467676 20.28778242 79.42244911 18.5913105 C79.42009969 16.21863173 79.44223181 13.84734439 79.4699707 11.47485352 C79.46006859 10.42348457 79.46006859 10.42348457 79.44996643 9.35087585 C79.51421227 6.00630387 79.80070702 4.26205799 81.84953308 1.56797791 C84 0 84 0 86.9375 -0.5625 C91.15910593 0.21289701 92.3916889 1.60753036 95 5 C95.71963579 8.13769109 95.66343558 11.19717883 95.61523438 14.4050293 C95.62078339 15.34554642 95.6263324 16.28606354 95.63204956 17.25508118 C95.6438518 20.36198011 95.61955514 23.46742187 95.59375 26.57421875 C95.59203828 28.74029982 95.5921052 30.90638296 95.59387207 33.07246399 C95.59221823 37.6145101 95.57351486 42.15606305 95.54199219 46.69799805 C95.50243326 52.50048114 95.49793304 58.30231478 95.50545502 64.10490704 C95.50853632 68.58069229 95.49636102 73.05633348 95.47932434 77.53208351 C95.47232395 79.6701549 95.46916619 81.80824262 95.47001648 83.9463253 C95.46820395 86.9471781 95.44669456 89.94727689 95.41992188 92.94799805 C95.42285248 93.82056244 95.42578308 94.69312683 95.42880249 95.59213257 C95.2797202 106.50893763 91.84788476 115.66732677 84.5 123.75 C83.675 124.4925 82.85 125.235 82 126 C81.29875 126.680625 80.5975 127.36125 79.875 128.0625 C72.89077885 132.76925773 65.26267489 134.33365525 57 135 C55.45769023 136.54230977 55.83752513 138.0040971 55.79467773 140.15258789 C55.77473251 141.03342545 55.75478729 141.914263 55.73423767 142.8217926 C55.71752518 143.77907761 55.70081268 144.73636261 55.68359375 145.72265625 C55.6524221 147.18547279 55.6524221 147.18547279 55.62062073 148.67784119 C55.55501588 151.8059863 55.49618972 154.93421822 55.4375 158.0625 C55.39432517 160.1777435 55.35071123 162.29297809 55.30664062 164.40820312 C55.19932345 169.60537587 55.0975778 174.80263577 55 180 C54.55042938 179.6141423 54.10085876 179.22828461 53.63766479 178.83073425 C50.92475842 176.50360607 48.21150482 174.17804146 45.47705078 171.8762207 C28.16978643 157.08189854 28.16978643 157.08189854 27.37060547 146.93041992 C27.37693026 143.25255247 27.64115531 139.66021586 28 136 C26.08831327 134.08831327 22.6208148 134.23420024 20.0625 133.8125 C9.27698461 131.8004488 1.39673621 127.06771383 -5 118 C-9.55189858 110.49214289 -10.15175521 103.86399863 -10.17700195 95.22436523 C-10.18357315 94.24494965 -10.19014435 93.26553406 -10.19691467 92.25643921 C-10.21658573 89.02382324 -10.22829259 85.79125344 -10.23828125 82.55859375 C-10.24235678 81.45388292 -10.2464323 80.3491721 -10.25063133 79.21098518 C-10.2714593 73.37088332 -10.28577874 67.53080476 -10.29516602 61.69067383 C-10.30626165 55.65220388 -10.34070727 49.61409927 -10.38033772 43.57575893 C-10.40643125 38.93556516 -10.41485107 34.29545975 -10.41844749 29.65519905 C-10.4233273 27.42840146 -10.43498066 25.20160817 -10.45348549 22.97488213 C-10.47773614 19.86503521 -10.47693828 16.75615201 -10.4699707 13.64624023 C-10.48278076 12.72405197 -10.49559082 11.80186371 -10.50878906 10.85173035 C-10.45793348 4.64034206 -10.45793348 4.64034206 -8.15812683 1.42445374 C-5.22009574 -0.51476934 -3.45571309 -0.50395816 0 0 Z " fill="#ACEAE4" transform="translate(276,114)"/>
<path d="M0 0 C4.63854557 3.87792444 9.04246978 7.90036332 13.30249023 12.18896484 C13.88872665 12.77505524 14.47496307 13.36114563 15.07896423 13.96499634 C16.99122444 15.87794604 18.89993086 17.79439913 20.80859375 19.7109375 C22.14358459 21.04779595 23.47879827 22.38443192 24.81422424 23.72085571 C28.30983017 27.22025979 31.80242114 30.7226577 35.29437256 34.22570801 C38.8656407 37.80724865 42.43978002 41.38592156 46.01367188 44.96484375 C53.01191241 51.9737739 60.00696815 58.98587324 67 66 C66.505 67.485 66.505 67.485 66 69 C65.90570724 70.88925281 65.87100886 72.78169105 65.86869812 74.67329407 C65.86468994 75.85514282 65.86068176 77.03699158 65.85655212 78.25465393 C65.85708084 79.55289597 65.85760956 80.851138 65.8581543 82.1887207 C65.85512246 83.56857413 65.85160093 84.94842656 65.84762573 86.32827759 C65.83973795 89.3009941 65.83459226 92.27369861 65.83133507 95.24642372 C65.82542354 99.94884028 65.80888163 104.65118121 65.78999329 109.3535614 C65.78365591 110.96370788 65.77733029 112.5738544 65.77101612 114.18400097 C65.76785031 114.99037105 65.7646845 115.79674113 65.76142275 116.62754667 C65.71935319 127.5751707 65.68637222 138.5227595 65.67407227 149.47045898 C65.66569033 156.85501076 65.64319497 164.23937527 65.6047166 171.62383336 C65.58496041 175.53086127 65.57254983 179.43760927 65.57755089 183.34469032 C65.58219953 187.02121616 65.56838091 190.69721159 65.54053879 194.37363052 C65.53034268 196.36198352 65.53987551 198.35040719 65.55003357 200.33876038 C65.43544771 211.27847005 65.43544771 211.27847005 61 216 C56.65559324 219.13201418 53.24126524 219.3717532 48.1171875 218.578125 C44.31539285 217.53999657 41.95851007 215.52817968 39.88849831 212.22790146 C38.77108252 209.4259915 38.7376321 207.18308029 38.7215271 204.16607666 C38.71036362 202.97418228 38.69920013 201.7822879 38.68769836 200.55427551 C38.68553818 199.25020248 38.68337799 197.94612946 38.68115234 196.60253906 C38.67185229 195.21279823 38.6616835 193.82306298 38.65071106 192.43333435 C38.62340562 188.66304214 38.60826008 184.89278731 38.59528303 181.12242222 C38.57965486 177.1812416 38.55286364 173.24013734 38.5272522 169.29901123 C38.48045884 161.83702884 38.44371744 154.3750321 38.41057932 146.91297793 C38.37236187 138.41723183 38.32295072 129.92156239 38.27259517 121.42588091 C38.16926703 103.95064273 38.08000951 86.47536018 38 69 C37.3834404 68.72896957 36.7668808 68.45793915 36.13163757 68.17869568 C35.32209122 67.82122757 34.51254486 67.46375946 33.6784668 67.09545898 C32.8762822 66.74192856 32.0740976 66.38839813 31.24760437 66.02415466 C17.63631119 59.82196465 8.19214027 50.65636687 2.82421875 36.6171875 C2.41623047 35.32167969 2.41623047 35.32167969 2 34 C1.63777344 32.85789063 1.27554688 31.71578125 0.90234375 30.5390625 C-0.54333631 24.61031397 -0.21159686 18.56178001 -0.125 12.5 C-0.11597656 11.29601562 -0.10695312 10.09203125 -0.09765625 8.8515625 C-0.07423775 5.9008321 -0.04143993 2.95052311 0 0 Z " fill="#ACEAE4" transform="translate(142,179)"/>
<path d="M0 0 C2.05534084 1.90240977 4.09305109 3.82265094 6.125 5.75 C6.62821777 6.22453613 7.13143555 6.69907227 7.64990234 7.18798828 C15.64687603 14.77855417 22.54908053 22.9097194 29.125 31.75 C29.55022949 32.31444824 29.97545898 32.87889648 30.41357422 33.46044922 C67.86472673 83.35212298 81.68788419 145.36744116 73.09765625 206.7734375 C65.58443805 255.11598524 42.50760481 297.47318084 9.125 332.75 C8.24972656 333.67941406 7.37445313 334.60882813 6.47265625 335.56640625 C-0.45296851 342.71576632 -7.915341 348.80104101 -15.875 354.75 C-16.43026367 355.1713623 -16.98552734 355.59272461 -17.55761719 356.02685547 C-65.67393451 392.41961645 -127.65045161 407.44504359 -187.3125 399.625 C-244.81203002 391.0966378 -301.16972208 360.06745171 -336.33203125 313.1953125 C-337.17984703 312.04699277 -338.02750533 310.89855675 -338.875 309.75 C-339.71212299 308.64314098 -340.54936192 307.53636963 -341.38671875 306.4296875 C-356.27944254 286.45612253 -366.77589306 264.20761408 -374.875 240.75 C-375.46087891 239.09097656 -375.46087891 239.09097656 -376.05859375 237.3984375 C-394.05845362 183.18874278 -386.84425463 119.65429525 -362.08203125 68.9375 C-356.20075321 57.22311952 -349.6922457 46.26546573 -341.875 35.75 C-341.46040527 35.1813623 -341.04581055 34.61272461 -340.61865234 34.02685547 C-334.29522717 25.36754751 -327.29658363 17.47843757 -319.875 9.75 C-319.38773437 9.23550293 -318.90046875 8.72100586 -318.3984375 8.19091797 C-310.81741916 0.20703135 -302.70298427 -6.68322727 -293.875 -13.25 C-293.31055176 -13.67522949 -292.74610352 -14.10045898 -292.16455078 -14.53857422 C-217.25569488 -70.76885826 -112.42564023 -74.64994373 0 0 Z M-213.0625 -49.0625 C-214.67983032 -48.61185181 -214.67983032 -48.61185181 -216.32983398 -48.15209961 C-226.49105441 -45.23269213 -236.21249378 -41.51904448 -245.875 -37.25 C-246.96965576 -36.77675293 -246.96965576 -36.77675293 -248.08642578 -36.29394531 C-280.72642391 -22.10264178 -311.21184706 1.44448658 -332.875 29.75 C-333.30522461 30.30913086 -333.73544922 30.86826172 -334.17871094 31.44433594 C-340.66989604 39.92572116 -346.55626838 48.63228782 -351.83398438 57.91894531 C-352.82931381 59.66964202 -353.84390522 61.40934556 -354.859375 63.1484375 C-382.36977287 112.11694571 -389.52270163 172.59651887 -374.875 226.75 C-374.64329102 227.61625 -374.41158203 228.4825 -374.17285156 229.375 C-363.33103415 269.11437707 -343.02031248 302.00682747 -314.875 331.75 C-314.23691406 332.430625 -313.59882813 333.11125 -312.94140625 333.8125 C-307.99274389 338.93917179 -302.44777825 343.32519954 -296.875 347.75 C-295.89660156 348.54535156 -294.91820312 349.34070313 -293.91015625 350.16015625 C-285.05879599 357.20329411 -275.64818386 363.07275108 -265.875 368.75 C-265.25963379 369.11335449 -264.64426758 369.47670898 -264.01025391 369.85107422 C-240.52700587 383.61166472 -213.7327594 391.922306 -186.875 395.75 C-186.19646973 395.85296387 -185.51793945 395.95592773 -184.81884766 396.06201172 C-144.20533301 402.09542049 -101.3093946 395.36922573 -63.875 378.75 C-63.22047852 378.46576172 -62.56595703 378.18152344 -61.89160156 377.88867188 C-29.36343408 363.68731257 0.26827166 340.72971252 22.125 312.75 C22.91390625 311.77804687 23.7028125 310.80609375 24.515625 309.8046875 C35.27786411 296.30112333 43.89668124 281.4082667 51.125 265.75 C51.45064941 265.05422852 51.77629883 264.35845703 52.11181641 263.64160156 C62.08178834 242.08779584 68.10534629 219.26253123 71.125 195.75 C71.35123047 194.03296875 71.35123047 194.03296875 71.58203125 192.28125 C71.90337577 189.0935124 72.04345904 185.95388031 72.125 182.75 C72.15078125 181.86715332 72.1765625 180.98430664 72.203125 180.07470703 C73.88085402 114.80056228 49.72030159 56.78909857 5.125 9.75 C4.4134375 8.99589844 3.701875 8.24179688 2.96875 7.46484375 C-10.54201153 -6.46120758 -27.05013108 -17.71812433 -43.875 -27.25 C-44.46716309 -27.5912793 -45.05932617 -27.93255859 -45.66943359 -28.28417969 C-64.49088796 -39.07617958 -84.94094249 -45.81567932 -105.875 -51.25 C-106.79539062 -51.49298828 -107.71578125 -51.73597656 -108.6640625 -51.98632812 C-123.40578692 -55.67175923 -138.33430039 -55.63292656 -153.4375 -55.6875 C-154.42335083 -55.69394531 -155.40920166 -55.70039062 -156.42492676 -55.70703125 C-175.53766594 -55.78333278 -194.61392665 -54.35126481 -213.0625 -49.0625 Z " fill="#EE8690" transform="translate(410.875,85.25)"/>
<path d="M0 0 C3.73160713 1.55887216 6.10009047 3.85149652 8.94314194 6.69704628 C9.67184475 7.42228756 9.67184475 7.42228756 10.41526884 8.16218019 C12.04853901 9.79013942 13.67455367 11.42515833 15.30072021 13.06021118 C16.47931364 14.23793277 17.65834634 15.41521489 18.83778119 16.59209383 C22.08270489 19.8325358 25.32134321 23.07919737 28.55901456 26.32688332 C32.04957186 29.82606091 35.54588986 33.31947396 39.04151917 36.81358337 C45.09887417 42.86988862 51.15255052 48.92985101 57.20375824 54.99229813 C65.95284157 63.75762127 74.70742877 72.51743011 83.4633781 81.27589397 C97.66846432 95.48535968 111.86907656 109.6992879 126.06689453 123.91601562 C139.8604525 137.72792582 153.65610516 151.53773821 167.45458984 165.34472656 C168.30483269 166.19549486 169.15507554 167.04626315 170.03108332 167.9228123 C174.29642669 172.19076571 178.56181139 176.45867783 182.82721663 180.72656941 C218.22455271 216.14464591 253.61463656 251.56996219 289 287 C285.21733447 290.80953126 281.45391276 294.10175132 277.125 297.25 C276.47007568 297.72671143 275.81515137 298.20342285 275.14038086 298.69458008 C258.16364871 310.87473104 239.64005707 319.97844804 220 327 C219.33532715 327.23847656 218.6706543 327.47695313 217.98583984 327.72265625 C198.78772603 334.4774588 178.96673175 337.22195093 158.6875 337.1875 C157.97691437 337.18656342 157.26632874 337.18562683 156.53421021 337.18466187 C112.05146189 337.05782358 68.55113554 324.3992828 33 297 C31.68322266 296.00033203 31.68322266 296.00033203 30.33984375 294.98046875 C23.55258669 289.69910074 17.24472566 283.90214335 11 278 C10.14277344 277.19691406 9.28554687 276.39382813 8.40234375 275.56640625 C-12.85814486 255.04717081 -27.85101813 228.4980434 -38 201 C-38.59748047 199.43765625 -38.59748047 199.43765625 -39.20703125 197.84375 C-48.3046127 172.61699028 -49.53343717 146.53171826 -49 120 C-48.99129883 119.23349121 -48.98259766 118.46698242 -48.97363281 117.67724609 C-48.39507317 75.99102636 -28.42440742 30.3068185 0 0 Z M-8 15 C-10.08977829 17.93606299 -12.0372928 20.93834352 -13.9375 24 C-14.45473633 24.82886719 -14.97197266 25.65773437 -15.50488281 26.51171875 C-20.1843773 34.11771727 -24.29140549 41.88097769 -28 50 C-28.33483398 50.7209082 -28.66966797 51.44181641 -29.01464844 52.18457031 C-41.08950706 78.43179821 -45.22746894 104.83021876 -45.25 133.5 C-45.25100708 134.38984589 -45.25201416 135.27969177 -45.25305176 136.19650269 C-45.24323049 149.01975041 -44.90479428 161.45511921 -42 174 C-41.61714844 175.79824219 -41.61714844 175.79824219 -41.2265625 177.6328125 C-35.1156229 203.14178056 -24.42129859 227.77296469 -9 249 C-8.59813477 249.5573584 -8.19626953 250.1147168 -7.78222656 250.68896484 C-1.85239843 258.8430758 4.69912486 266.32220793 11.66601562 273.60302734 C12.80358673 274.79431246 13.92678224 275.99929764 15.046875 277.20703125 C21.08196098 283.53871333 28.03616024 288.74458756 35 294 C35.56493164 294.43103027 36.12986328 294.86206055 36.71191406 295.30615234 C61.02656194 313.75885268 89.97387984 325.79172843 120 331 C120.88220215 331.17063965 121.7644043 331.3412793 122.67333984 331.51708984 C132.65386553 333.29087619 142.52073175 333.39791926 152.625 333.375 C153.97711075 333.37418427 153.97711075 333.37418427 155.35653687 333.37335205 C201.28429796 333.24636894 243.59617384 318.94966382 279.875 290.53125 C281.56174163 288.23540722 281.3508643 286.80134138 281 284 C279.22457385 281.4721109 279.22457385 281.4721109 276.6879549 279.0587492 C276.22177337 278.58530047 275.75559185 278.11185173 275.2752836 277.62405607 C273.70108986 276.03153129 272.10959272 274.45750875 270.51765442 272.88273621 C269.37758463 271.73690846 268.23860762 270.58999254 267.10063571 269.44208127 C263.96328258 266.28378715 260.81043957 263.14136015 257.65488708 260.00126374 C254.25724198 256.6148985 250.87397616 253.21422035 247.48886108 249.81533813 C240.85227992 243.15648408 234.20220286 236.51126679 227.54724429 229.87078454 C222.14050787 224.47532442 216.73865248 219.07502285 211.34027672 213.67119789 C210.57294527 212.90310028 209.80561382 212.13500266 209.0150299 211.34362936 C207.45639835 209.78339923 205.89777804 208.22315786 204.33916887 206.66290537 C189.71178598 192.0212531 175.06909585 177.39498626 160.42116072 162.77389906 C147.8436071 150.21868524 135.279221 137.65041935 122.72436523 125.07250977 C108.15680287 110.47821043 93.58118984 95.89203037 78.99257106 81.31877691 C77.4379709 79.76576955 75.88338121 78.21275171 74.32880211 76.65972328 C73.56384713 75.89553968 72.79889214 75.13135607 72.0107567 74.34401539 C66.61185223 68.94943421 61.21878431 63.54905986 55.82792091 58.14644432 C49.26114513 51.56566838 42.68558249 44.99382862 36.09847472 38.43340185 C32.73565346 35.08375206 29.37701149 31.73017225 26.02901649 28.36569786 C22.96708468 25.28892282 19.89395241 22.22382974 16.81127509 19.16784421 C15.69511905 18.05729703 14.58320614 16.94246645 13.47590242 15.8230926 C11.9755426 14.30763257 10.46077831 12.80824861 8.9412508 11.3120451 C7.68190833 10.05392026 7.68190833 10.05392026 6.39712459 8.77037877 C4.12772788 6.79631849 4.12772788 6.79631849 1.30434626 6.64089757 C-3.20903287 7.34424907 -5.40016188 11.53065322 -8 15 Z " fill="#CE4755" transform="translate(101,123)"/>
<path d="M0 0 C16.02225867 -0.4093838 31.44063465 0.61409324 47.26855469 3.078125 C48.01782227 3.18495605 48.76708984 3.29178711 49.5390625 3.40185547 C61.34764745 5.08919199 72.16441528 8.84744566 83.26855469 13.078125 C84.01282715 13.35672363 84.75709961 13.63532227 85.52392578 13.92236328 C133.18665913 31.90484859 174.4089437 70.67690216 195.60644531 117.00195312 C202.56400104 132.75847776 208.05649047 148.17867399 210.95605469 165.203125 C211.16810547 166.38777344 211.38015625 167.57242188 211.59863281 168.79296875 C214.41994664 184.9376479 214.48938067 200.72661025 214.26855469 217.078125 C214.26130371 217.83706055 214.25405273 218.59599609 214.24658203 219.37792969 C213.60610699 261.86639267 193.10740573 305.67019049 165.26855469 337.078125 C161.53694756 335.51925284 159.16846422 333.22662848 156.32541275 330.38107872 C155.83961087 329.89758453 155.353809 329.41409034 154.85328585 328.91594481 C153.22001567 327.28798558 151.59400102 325.65296667 149.96783447 324.01791382 C148.78924105 322.84019223 147.61020834 321.66291011 146.4307735 320.48603117 C143.18584979 317.2455892 139.94721148 313.99892763 136.70954013 310.75124168 C133.21898283 307.25206409 129.72266483 303.75865104 126.22703552 300.26454163 C120.16968052 294.20823638 114.11600417 288.14827399 108.06479645 282.08582687 C99.31571312 273.32050373 90.56112591 264.56069489 81.80517659 255.80223103 C67.60009037 241.59276532 53.39947813 227.3788371 39.20166016 213.16210938 C25.40810219 199.35019918 11.61244952 185.54038679 -2.18603516 171.73339844 C-3.036278 170.88263014 -3.88652085 170.03186185 -4.76252863 169.1553127 C-9.027872 164.88735929 -13.2932567 160.61944717 -17.55866194 156.35155559 C-52.95599803 120.93347909 -88.34608187 85.50816281 -123.73144531 50.078125 C-119.94877978 46.26859374 -116.18535807 42.97637368 -111.85644531 39.828125 C-111.201521 39.35141357 -110.54659668 38.87470215 -109.87182617 38.38354492 C-98.71156372 30.37648678 -86.85269035 23.85205757 -74.47998047 17.92431641 C-73.00454176 17.21028812 -71.54384881 16.4659076 -70.08691406 15.71484375 C-48.82845765 5.1714736 -23.53393901 0.67311946 0 0 Z M-114.61425781 46.55078125 C-116.29223828 48.8448035 -116.08096298 50.28326826 -115.73144531 53.078125 C-113.95601916 55.6060141 -113.95601916 55.6060141 -111.41940022 58.0193758 C-110.72012792 58.7295489 -110.72012792 58.7295489 -110.00672892 59.45406893 C-108.43253517 61.04659371 -106.84103803 62.62061625 -105.24909973 64.19538879 C-104.10902994 65.34121654 -102.97005294 66.48813246 -101.83208102 67.63604373 C-98.69472789 70.79433785 -95.54188488 73.93676485 -92.38633239 77.07686126 C-88.98868729 80.4632265 -85.60542148 83.86390465 -82.2203064 87.26278687 C-75.58372524 93.92164092 -68.93364817 100.56685821 -62.2786896 107.20734046 C-56.87195319 112.60280058 -51.4700978 118.00310215 -46.07172203 123.40692711 C-45.30439058 124.17502472 -44.53705913 124.94312234 -43.74647522 125.73449564 C-42.18784366 127.29472577 -40.62922335 128.85496714 -39.07061418 130.41521963 C-24.44323129 145.0568719 -9.80054117 159.68313874 4.84739397 174.30422594 C17.42494759 186.85943976 29.98933368 199.42770565 42.54418945 212.00561523 C57.11175182 226.59991457 71.68736485 241.18609463 86.27598363 255.75934809 C87.83058379 257.31235545 89.38517348 258.86537329 90.93975258 260.41840172 C91.70470756 261.18258532 92.46966255 261.94676893 93.25779798 262.73410961 C98.65670246 268.12869079 104.04977038 273.52906514 109.44063377 278.93168068 C116.00740956 285.51245662 122.5829722 292.08429638 129.17007997 298.64472315 C132.53290123 301.99437294 135.8915432 305.34795275 139.23953819 308.71242714 C142.30147001 311.78920218 145.37460227 314.85429526 148.4572796 317.91028079 C149.57343564 319.02082797 150.68534855 320.13565855 151.79265227 321.2550324 C153.29301209 322.77049243 154.80777638 324.26987639 156.32730389 325.7660799 C157.16686554 326.60482979 158.00642719 327.44357968 158.8714301 328.30774623 C161.13964084 330.27628477 161.13964084 330.27628477 163.94798833 330.45846766 C168.77172247 329.66785382 171.27918065 324.6904017 173.97998047 320.93994141 C185.55966413 304.20885622 194.48703334 286.22995915 201.26855469 267.078125 C201.62626953 266.08039063 201.62626953 266.08039063 201.99121094 265.0625 C209.12297265 244.68603796 210.6405331 223.49321153 210.70605469 202.078125 C210.71222809 201.22492676 210.71840149 200.37172852 210.72476196 199.49267578 C210.79697165 183.98942486 209.19481567 168.69376438 205.08105469 153.703125 C204.77131714 152.55686646 204.77131714 152.55686646 204.45532227 151.38745117 C194.81122064 117.0869085 176.73783467 87.68953545 152.26855469 62.078125 C151.594375 61.35109375 150.92019531 60.6240625 150.22558594 59.875 C144.70240513 54.08095958 138.42797718 49.2578113 132.05810547 44.44091797 C130.42350512 43.19612409 128.81151899 41.92177692 127.20214844 40.64453125 C98.02518503 18.4057694 58.73035452 3.96110995 21.94824219 3.91015625 C21.08651398 3.90682785 20.22478577 3.90349945 19.33694458 3.90007019 C17.52346321 3.89504031 15.70997271 3.89266064 13.89648438 3.89282227 C11.17138776 3.89064722 8.44670436 3.87248046 5.72167969 3.85351562 C-38.57267124 3.71058834 -79.87732071 19.38101924 -114.61425781 46.55078125 Z " fill="#CE4754" transform="translate(245.7314453125,51.921875)"/>
<path d="M0 0 C3.23941496 2.09731353 6.12456437 4.43127751 9 7 C9.90685547 7.76763672 9.90685547 7.76763672 10.83203125 8.55078125 C25.65463961 22.03500511 33.84784458 45.38400007 36 65 C36.39953696 73.59469036 36.09061385 81.64850744 34 90 C28.9256555 85.7507125 24.16990451 81.30894515 19.50415039 76.61767578 C18.79111755 75.90478897 18.07808472 75.19190216 17.34344482 74.45741272 C15.00913443 72.12241086 12.6783769 69.78389705 10.34765625 67.4453125 C8.72120181 65.81699116 7.09452509 64.18889182 5.46763611 62.56100464 C1.20264503 58.29220984 -3.05933336 54.0204196 -7.32067871 49.74798584 C-11.67615322 45.38225097 -16.03448773 41.01937329 -20.39257812 36.65625 C-28.93117747 28.10695118 -37.46659493 19.55448323 -46 11 C-45.05672633 9.8706549 -44.10930598 8.74477245 -43.16015625 7.62036133 C-42.63301025 6.9930159 -42.10586426 6.36567047 -41.56274414 5.71931458 C-39.5963807 3.55594232 -37.53571477 2.13009414 -35 0.6875 C-34.195625 0.21699219 -33.39125 -0.25351563 -32.5625 -0.73828125 C-21.94447779 -5.96636231 -10.4498657 -5.41608893 0 0 Z " fill="#ACEAE4" transform="translate(211,118)"/>
<path d="M0 0 C0.44916275 0.3870813 0.8983255 0.7741626 1.36109924 1.17297363 C4.06738185 3.49988512 6.77578123 5.81664041 9.53881836 8.07617188 C26.00046965 21.6157709 26.00046965 21.6157709 27.375 30.92578125 C27.76612748 39.17945232 27.45341284 46.50296969 22 53 C18.09759306 55.66073201 14.61887728 56.60034013 9.9609375 56.421875 C6.31749306 55.6380264 4.55173013 53.67324109 2 51 C0.14723648 47.98072173 -0.24598032 45.7523389 -0.22705078 42.23144531 C-0.22689972 41.29077209 -0.22674866 40.35009888 -0.22659302 39.38092041 C-0.21627045 38.37349792 -0.20594788 37.36607544 -0.1953125 36.328125 C-0.1924826 35.29057068 -0.18965271 34.25301636 -0.18673706 33.184021 C-0.17554865 29.87256299 -0.15044627 26.56137616 -0.125 23.25 C-0.11496848 21.00391016 -0.10584293 18.75781607 -0.09765625 16.51171875 C-0.0756137 11.00772009 -0.04214932 5.50387942 0 0 Z " fill="#ACEAE4" transform="translate(305,342)"/>
<path d="M0 0 C0.33 0 0.66 0 1 0 C1.06956471 10.45742115 1.12284419 20.91478709 1.15543652 31.37239265 C1.17108061 36.22848825 1.19229598 41.08442532 1.22631836 45.94042969 C1.25895655 50.62830027 1.27686247 55.31601854 1.28463173 60.00399399 C1.29016722 61.79093701 1.30097674 63.57787187 1.31719017 65.36474991 C1.33902385 67.87111562 1.34196447 70.376855 1.34057617 72.88330078 C1.351362 73.61913895 1.36214783 74.35497711 1.3732605 75.1131134 C1.34005916 80.66649251 0.0603416 84.71976116 -3.68359375 88.86328125 C-4.26238281 89.34152344 -4.84117187 89.81976563 -5.4375 90.3125 C-6.30181641 91.04919922 -6.30181641 91.04919922 -7.18359375 91.80078125 C-11.77251956 94.83045915 -17.71076189 94.69093651 -23 94 C-29.24311605 91.62420669 -32.21441706 87.90543583 -35 82 C-35.33 81.34 -35.66 80.68 -36 80 C-36.09284346 77.52810918 -36.12583159 75.08468489 -36.11352539 72.61279297 C-36.11367142 71.85172241 -36.11381744 71.09065186 -36.1139679 70.30651855 C-36.11326993 67.78504611 -36.10548294 65.26364708 -36.09765625 62.7421875 C-36.09579166 60.99626709 -36.09436795 59.25034616 -36.09336853 57.50442505 C-36.08954659 52.90454672 -36.07971905 48.30469986 -36.06866455 43.70483398 C-36.05844349 39.0128624 -36.05386942 34.32088575 -36.04882812 29.62890625 C-36.03809651 20.41925699 -36.02102394 11.20963111 -36 2 C-35.01 1.67 -34.02 1.34 -33 1 C-32.99635437 1.94689697 -32.99270874 2.89379395 -32.98895264 3.86938477 C-32.95193227 12.8145116 -32.89408296 21.75929642 -32.81609726 30.7041626 C-32.77667093 35.30230082 -32.74445878 39.90024892 -32.72900391 44.49853516 C-32.71380528 48.94026468 -32.67930327 53.38147137 -32.63169098 57.82296753 C-32.61691013 59.51328982 -32.60896088 61.20368678 -32.60811615 62.89407349 C-32.82015127 75.08271713 -32.82015127 75.08271713 -28 86 C-24.77106662 88.78601374 -21.69671687 89.91443828 -17.4375 90.4375 C-12.30157377 89.78383666 -9.20969738 88.30778096 -5.6875 84.5 C-2.83103031 80.26819305 -2.84464557 76.54805031 -2.82641602 71.62280273 C-2.819729 70.87455231 -2.81304199 70.12630188 -2.80615234 69.3553772 C-2.79211004 67.73155273 -2.78021337 66.10770863 -2.77020454 64.48385429 C-2.75379646 61.9164143 -2.73056096 59.34912083 -2.70530701 56.78175354 C-2.63450954 49.48258753 -2.57428931 42.1833633 -2.52319336 34.8840332 C-2.49146353 30.41957018 -2.45020945 25.9552783 -2.40299797 21.49095345 C-2.38694847 19.7872836 -2.37464059 18.08357437 -2.36609077 16.37985039 C-2.35398331 14.00232344 -2.32985555 11.62520187 -2.30297852 9.24780273 C-2.30238937 8.53969955 -2.30180023 7.83159637 -2.30119324 7.10203552 C-2.22790199 2.22790199 -2.22790199 2.22790199 0 0 Z " fill="#CBEFEC" transform="translate(313,116)"/>
<path d="M0 0 C2.31477255 1.6688208 3.80943553 3.03788988 4.37753105 5.90605545 C4.51458157 8.37517137 4.5286843 10.81862625 4.50170898 13.29150391 C4.50711197 14.231875 4.51251495 15.17224609 4.51808167 16.14111328 C4.53059827 19.253249 4.51405057 22.36446441 4.49609375 25.4765625 C4.49624875 27.64407398 4.49773784 29.81158574 4.50050354 31.97909546 C4.50188912 36.52704083 4.48930884 41.07467148 4.46655273 45.62255859 C4.43826944 51.43290024 4.44087583 57.24271487 4.45364285 63.05309486 C4.46062498 67.53315674 4.45278014 72.01309846 4.44038582 76.49314499 C4.43588875 78.63401197 4.43551917 80.77489194 4.43945122 82.91576004 C4.44238565 85.92148114 4.42574663 88.92649724 4.40405273 91.93212891 C4.40855438 92.80626434 4.41305603 93.68039978 4.41769409 94.58102417 C4.28774716 105.50396559 0.85085664 114.66405769 -6.5 122.75 C-7.325 123.4925 -8.15 124.235 -9 125 C-9.70125 125.680625 -10.4025 126.36125 -11.125 127.0625 C-18.10922115 131.76925773 -25.73732511 133.33365525 -34 134 C-35.54230977 135.54230977 -35.16247487 137.0040971 -35.20532227 139.15258789 C-35.22526749 140.03342545 -35.24521271 140.914263 -35.26576233 141.8217926 C-35.28247482 142.77907761 -35.29918732 143.73636261 -35.31640625 144.72265625 C-35.33718735 145.69786728 -35.35796844 146.67307831 -35.37937927 147.67784119 C-35.44498412 150.8059863 -35.50381028 153.93421822 -35.5625 157.0625 C-35.60567483 159.1777435 -35.64928877 161.29297809 -35.69335938 163.40820312 C-35.80067655 168.60537587 -35.9024222 173.80263577 -36 179 C-36.99 178.34 -37.98 177.68 -39 177 C-39.36076355 174.97518921 -39.36076355 174.97518921 -39.34057617 172.45849609 C-39.34034958 171.51767181 -39.34012299 170.57684753 -39.33988953 169.60751343 C-39.31666374 168.08089584 -39.31666374 168.08089584 -39.29296875 166.5234375 C-39.28872391 165.48305328 -39.28447906 164.44266907 -39.28010559 163.37075806 C-39.26327482 160.03857853 -39.22561422 156.70699759 -39.1875 153.375 C-39.17245887 151.11980038 -39.15876947 148.86459131 -39.14648438 146.609375 C-39.11335699 141.07271145 -39.0631142 135.53639848 -39 130 C-37.80068848 129.92108521 -37.80068848 129.92108521 -36.57714844 129.84057617 C-35.5152832 129.76299072 -34.45341797 129.68540527 -33.359375 129.60546875 C-31.78881348 129.49561646 -31.78881348 129.49561646 -30.18652344 129.38354492 C-21.0574496 128.28472673 -12.41619092 124.35016341 -6.50390625 117.1875 C-0.98658901 109.06705682 0.45492015 100.22425933 0.34057617 90.59326172 C0.34101425 89.60669083 0.34145233 88.62011993 0.34190369 87.60365295 C0.33983223 84.37878859 0.31657917 81.15445979 0.29296875 77.9296875 C0.28736695 75.6795378 0.28309961 73.42938442 0.28010559 71.17922974 C0.26870285 65.28391247 0.23927519 59.38882024 0.20599365 53.49359131 C0.17519393 47.46711266 0.16157915 41.44059732 0.14648438 35.4140625 C0.11440097 23.60927664 0.06326024 11.8046571 0 0 Z " fill="#8FC2BC" transform="translate(367,115)"/>
<path d="M0 0 C3.0386442 2.36023586 3.93212177 3.53073342 4.49206543 7.40182495 C4.50915204 8.77412835 4.50442767 10.14680963 4.48242188 11.51904297 C4.48633438 12.27076782 4.49024689 13.02249268 4.49427795 13.79699707 C4.50024751 15.42625974 4.49709267 17.05557578 4.4858551 18.68481064 C4.46858853 21.26632873 4.47610323 23.84672735 4.4901123 26.42825317 C4.51976037 32.84000561 4.5065832 39.25154428 4.49493408 45.66333008 C4.48672235 51.08117089 4.4947053 56.49852273 4.52406311 61.9162941 C4.53114532 64.45466988 4.5144934 66.99217961 4.49694824 69.53048706 C4.50265807 71.09438539 4.50947632 72.6582802 4.51757812 74.22216797 C4.50626358 74.92366974 4.49494904 75.62517151 4.48329163 76.34793091 C4.54489533 81.33832646 5.86897143 84.16058445 9 88 C13.38373454 90.9224897 16.77777599 91.559524 22 91 C25.25058324 89.58376759 25.25058324 89.58376759 28 88 C28.66 88 29.32 88 30 88 C32.16765476 82.65311826 33.14921426 78.38114932 33.15771484 72.62280273 C33.16279556 71.87455231 33.16787628 71.12630188 33.17311096 70.3553772 C33.18380643 68.73154811 33.19242984 67.10770436 33.19923019 65.48385429 C33.21101639 62.91640879 33.23046615 60.34913169 33.25234985 57.78175354 C33.31399215 50.48256998 33.36810642 43.1834057 33.40136719 35.8840332 C33.42225914 31.41951093 33.45751205 26.95529895 33.50212479 22.49095345 C33.51632291 20.78728945 33.52501578 19.08357061 33.52817917 17.37985039 C33.53306326 15.00216824 33.55615267 12.62531724 33.58349609 10.24780273 C33.58048996 9.53969955 33.57748383 8.83159637 33.5743866 8.10203552 C33.60800171 6.14353943 33.60800171 6.14353943 34 3 C34.99 2.34 35.98 1.68 37 1 C37.06956471 11.45742115 37.12284419 21.91478709 37.15543652 32.37239265 C37.17108061 37.22848825 37.19229598 42.08442532 37.22631836 46.94042969 C37.25895655 51.62830027 37.27686247 56.31601854 37.28463173 61.00399399 C37.29016722 62.79093701 37.30097674 64.57787187 37.31719017 66.36474991 C37.33902385 68.87111562 37.34196447 71.376855 37.34057617 73.88330078 C37.351362 74.61913895 37.36214783 75.35497711 37.3732605 76.1131134 C37.34119205 81.47700132 36.1892249 85.59477157 32.53515625 89.609375 C26.50343889 94.28115608 22.58339232 95.79689885 15 95 C8.85758305 93.23015105 5.6268764 90.05085136 2 85 C0.44330783 81.88661565 0.82027323 78.57332629 0.79467773 75.15380859 C0.78477814 74.34397018 0.77487854 73.53413177 0.76467896 72.69975281 C0.73302601 70.01601104 0.70829156 67.33225155 0.68359375 64.6484375 C0.6630275 62.7904107 0.64203111 60.93238861 0.62062073 59.07437134 C0.5653661 54.17862765 0.51597179 49.28284149 0.46777344 44.38702393 C0.41758315 39.39339407 0.3618842 34.39982605 0.30664062 29.40625 C0.19901758 19.60421946 0.09758183 9.80213528 0 0 Z " fill="#8DBFB9" transform="translate(322,115)"/>
<path d="M0 0 C0.33 0 0.66 0 1 0 C1.00364563 1.2136322 1.00729126 2.4272644 1.01104736 3.67767334 C1.04809667 15.15268687 1.10597769 26.62743451 1.18390274 38.10224533 C1.22329848 44.00062878 1.25552576 49.8988647 1.27099609 55.79736328 C1.28621464 61.49692271 1.32075252 67.19607632 1.36830902 72.89545441 C1.38306928 75.0625479 1.39103792 77.22969936 1.39188385 79.39684296 C1.20557424 100.45104606 1.20557424 100.45104606 11.6875 118.08984375 C20.36053115 125.25388468 29.2132461 125.70311687 40 126 C40 134.91 40 143.82 40 153 C37 151 37 151 36.58349609 149.04467773 C36.55376709 147.87594116 36.55376709 147.87594116 36.5234375 146.68359375 C36.4925 145.83732422 36.4615625 144.99105469 36.4296875 144.11914062 C36.41164063 143.23419922 36.39359375 142.34925781 36.375 141.4375 C36.32419742 139.68608092 36.26971055 137.93476348 36.2109375 136.18359375 C36.18459229 135.01654907 36.18459229 135.01654907 36.15771484 133.82592773 C36.19570557 131.98116098 36.19570557 131.98116098 35 131 C32.69071567 130.58581868 30.37739523 130.19407614 28.0625 129.8125 C17.27698461 127.8004488 9.39673621 123.06771383 3 114 C-1.52650717 106.53402323 -2.14956811 99.96830423 -2.14526367 91.3762207 C-2.14862228 90.41309967 -2.1519809 89.44997864 -2.15544128 88.45767212 C-2.16492593 85.28036199 -2.16689275 82.10310464 -2.16796875 78.92578125 C-2.17118161 76.718114 -2.1745457 74.51044696 -2.17805481 72.30278015 C-2.18403881 67.68028265 -2.18589531 63.05780383 -2.18530273 58.43530273 C-2.18520082 52.4998839 -2.19888632 46.5645839 -2.21607494 40.62919331 C-2.22716496 36.07315007 -2.22922292 31.51713591 -2.22869301 26.96108055 C-2.22987638 24.77172623 -2.234318 22.58237124 -2.24202538 20.39303017 C-2.25177054 17.34046567 -2.24896966 14.288164 -2.24291992 11.2355957 C-2.24853943 10.32491837 -2.25415894 9.41424103 -2.25994873 8.47596741 C-2.2283194 2.2283194 -2.2283194 2.2283194 0 0 Z " fill="#CCEFEC" transform="translate(268,118)"/>
<path d="M0 0 C3.80495846 3.30497505 5.84766358 7.12310343 7.9375 11.625 C8.28304932 12.36411621 8.62859863 13.10323242 8.98461914 13.86474609 C16.9962765 31.64475731 21.05141435 51.83168661 16 71 C12.1147945 67.74623599 12.1147945 67.74623599 11.609375 64.46069336 C11.65578125 63.51331299 11.7021875 62.56593262 11.75 61.58984375 C11.80099854 59.995354 11.80099854 59.995354 11.85302734 58.36865234 C11.90152832 57.23637207 11.9500293 56.1040918 12 54.9375 C12.33739752 38.55447293 9.48867941 24.55805469 3.3671875 9.41796875 C2.12293254 6.30733136 1.02536916 3.18840982 0 0 Z " fill="#90C3BE" transform="translate(229,137)"/>
<path d="M0 0 C1.95483398 1.15258789 1.95483398 1.15258789 4 3 C4.59008789 5.53686523 4.59008789 5.53686523 4.72265625 8.55859375 C4.78646484 9.66783203 4.85027344 10.77707031 4.91601562 11.91992188 C4.96435547 13.08072266 5.01269531 14.24152344 5.0625 15.4375 C5.57496397 26.49027234 7.23027648 36.56076564 11 47 C9.1640625 46.84765625 9.1640625 46.84765625 7 46 C5.5859375 43.55859375 5.5859375 43.55859375 4.375 40.4375 C3.97023437 39.42558594 3.56546875 38.41367188 3.1484375 37.37109375 C0.22615483 28.79310075 -0.25425951 21.54816541 -0.125 12.5 C-0.11597656 11.29601562 -0.10695312 10.09203125 -0.09765625 8.8515625 C-0.07423775 5.9008321 -0.04143993 2.95052311 0 0 Z " fill="#CCEFEC" transform="translate(142,179)"/>
<path d="M0 0 C1.485 0.99 1.485 0.99 3 2 C3.36076355 4.06277466 3.36076355 4.06277466 3.34057617 6.63330078 C3.34034958 7.59414581 3.34012299 8.55499084 3.33988953 9.54495239 C3.32440567 10.58457123 3.30892181 11.62419006 3.29296875 12.6953125 C3.28872391 13.75789276 3.28447906 14.82047302 3.28010559 15.91525269 C3.26327389 19.31875646 3.22561303 22.72167433 3.1875 26.125 C3.17245899 28.42837688 3.15876958 30.73176302 3.14648438 33.03515625 C3.11335574 38.69030505 3.06311197 44.34511068 3 50 C0.9790154 48.34755537 0.07939974 47.47210321 -0.36076355 44.85493469 C-0.35410172 44.02664658 -0.34743988 43.19835846 -0.34057617 42.3449707 C-0.34034958 41.40422195 -0.34012299 40.46347321 -0.33988953 39.49421692 C-0.32440567 38.48163315 -0.30892181 37.46904938 -0.29296875 36.42578125 C-0.28872391 35.38681198 -0.28447906 34.34784271 -0.28010559 33.27738953 C-0.26329849 29.95549724 -0.22564196 26.63420925 -0.1875 23.3125 C-0.17245582 21.06185771 -0.15876695 18.81120593 -0.14648438 16.56054688 C-0.11338836 11.04015803 -0.06316869 5.52012218 0 0 Z " fill="#CFF3F0" transform="translate(305,342)"/>
<path d="M0 0 C1.485 0.99 1.485 0.99 3 2 C3.38818359 4.18310547 3.38818359 4.18310547 3.3984375 6.8671875 C3.40230469 7.83527344 3.40617187 8.80335938 3.41015625 9.80078125 C3.39855469 10.81527344 3.38695312 11.82976562 3.375 12.875 C3.38660156 13.88175781 3.39820313 14.88851563 3.41015625 15.92578125 C3.40628906 16.89644531 3.40242188 17.86710937 3.3984375 18.8671875 C3.39505371 19.75519043 3.39166992 20.64319336 3.38818359 21.55810547 C3 24 3 24 0 28 C0 18.76 0 9.52 0 0 Z " fill="#96CCC6" transform="translate(328,365)"/>
</svg>
